:FULLY-SPECIFIED
:DEGREES
1663
root 8.08902 16.7929 -3.36367 4549.03 -95.5081 -4532.7
lowerback 0.738612 2.30855 4.15002
upperback 2.01069 3.03579 0.286731
thorax 1.85409 1.57148 -1.99442
lowerneck -16.8701 -0.869459 -2.98513
upperneck 30.5852 -1.77209 2.51051
head 13.1031 -0.990276 1.16269
rclavicle 5.40694e-014 2.3059e-014
rhumerus -24.0949 -1.93021 -83.5972
rradius 33.1967
rwrist 18.7193
rhand -24.9773 -12.8725
rfingers 7.12502
rthumb 1.53346 -42.8467
lclavicle 5.40694e-014 2.3059e-014
lhumerus -36.4408 -1.36249 84.2876
lradius 36.9697
lwrist 4.54348
lhand -19.1449 2.73038
lfingers 7.12502
lthumb 7.16532 32.5891
rfemur -15.0797 2.59914 27.7385
rtibia 26.6241
rfoot -13.9664 -5.35485
rtoes -14.7427
lfemur -45.8852 5.29213 -19.9049
ltibia 33.9373
lfoot -6.44494 -1.31713
ltoes -17.2062
1664
root 8.10145 16.7852 -3.34968 4550.54 -95.4857 -4534.09
lowerback 0.759531 2.37354 4.1899
upperback 1.99763 3.12494 0.222924
thorax 1.84073 1.61704 -2.08183
lowerneck -16.909 -0.850981 -2.93571
upperneck 30.4576 -1.71803 2.42703
head 13.0549 -0.968139 1.12982
rclavicle -3.81667e-014 -8.34896e-015
rhumerus -24.0218 -1.14272 -83.8468
rradius 34.1228
rwrist 17.7947
rhand -24.7414 -12.6589
rfingers 7.12502
rthumb 1.76131 -42.6314
lclavicle -3.81667e-014 -8.34896e-015
lhumerus -36.7122 -1.09499 84.1192
lradius 36.6269
lwrist 4.70438
lhand -19.2876 2.74637
lfingers 7.12502
lthumb 7.02755 32.6097
rfemur -13.6596 2.62374 27.8715
rtibia 25.3162
rfoot -13.7944 -5.35318
rtoes -15.126
lfemur -45.8094 4.87217 -19.7767
ltibia 30.319
lfoot -6.87391 -0.0674536
ltoes -17.3265
1665
root 8.11237 16.7787 -3.33389 4552.49 -95.4595 -4535.94
lowerback 0.758191 2.42109 4.22931
upperback 2.02608 3.18735 0.194868
thorax 1.87905 1.6501 -2.13055
lowerneck -17.025 -0.795226 -2.95137
upperneck 30.3157 -1.59748 2.38539
head 13.016 -0.917357 1.13514
rclavicle 5.08889e-014 -8.34896e-015
rhumerus -23.8465 -0.311834 -84.0553
rradius 34.9839
rwrist 16.9355
rhand -24.5141 -12.2787
rfingers 7.12502
rthumb 1.98088 -42.2492
lclavicle 5.08889e-014 -8.34896e-015
lhumerus -36.9091 -0.744826 83.961
lradius 36.2097
lwrist 4.80447
lhand -19.4698 2.86468
lfingers 7.12502
lthumb 6.85164 32.7338
rfemur -12.1979 2.64834 28.027
rtibia 23.9246
rfoot -13.4879 -5.38127
rtoes -15.6926
lfemur -45.6031 4.19521 -19.3733
ltibia 26.7796
lfoot -7.49428 1.38854
ltoes -17.7541
1666
root 8.12268 16.7737 -3.31469 4553.82 -95.4516 -4537.2
lowerback 0.788318 2.46554 4.30964
upperback 2.03751 3.24835 0.133058
thorax 1.88664 1.68285 -2.23862
lowerneck -17.0331 -0.774196 -2.91549
upperneck 30.1273 -1.54069 2.32351
head 12.9367 -0.892033 1.11327
rclavicle -1.43125e-014 -2.3059e-014
rhumerus -23.6978 0.176618 -84.2005
rradius 35.7504
rwrist 16.6025
rhand -24.1334 -11.9121
rfingers 7.12502
rthumb 2.34856 -41.879
lclavicle -1.43125e-014 -2.3059e-014
lhumerus -37.1013 -0.515703 83.8285
lradius 35.748
lwrist 4.92365
lhand -19.7498 3.02681
lfingers 7.12502
lthumb 6.58131 32.9045
rfemur -10.6854 2.55549 28.1451
rtibia 22.5358
rfoot -13.1986 -5.41414
rtoes -16.2361
lfemur -45.3024 3.06479 -18.6675
ltibia 23.4359
lfoot -8.2616 3.07995
ltoes -18.438
1667
root 8.13067 16.7613 -3.29527 4555.13 -95.3841 -4538.53
lowerback 0.860052 2.51099 4.30595
upperback 2.09832 3.31099 0.0723407
thorax 1.91711 1.71594 -2.29939
lowerneck -17.0587 -0.740262 -2.85272
upperneck 29.9149 -1.4706 2.25882
head 12.8509 -0.857446 1.08774
rclavicle -1.74931e-014 1.19271e-014
rhumerus -23.4952 0.682055 -84.3269
rradius 36.4746
rwrist 16.2877
rhand -23.6961 -11.5802
rfingers 7.12502
rthumb 2.77084 -41.5419
lclavicle -1.74931e-014 1.19271e-014
lhumerus -37.1854 -0.294745 83.6929
lradius 35.1656
lwrist 4.96682
lhand -19.9375 3.08482
lfingers 7.12502
lthumb 6.40015 32.9681
rfemur -9.10124 2.47901 28.2058
rtibia 21.2115
rfoot -12.9222 -5.36966
rtoes -16.6332
lfemur -44.8699 1.60586 -17.6817
ltibia 20.3887
lfoot -9.23904 4.95751
ltoes -18.2567
1668
root 8.13942 16.7428 -3.27906 4556.52 -95.3643 -4539.86
lowerback 0.86934 2.53149 4.27408
upperback 2.10779 3.33926 0.0332562
thorax 1.92417 1.73026 -2.32143
lowerneck -17.0186 -0.694767 -2.8465
upperneck 29.7293 -1.40473 2.29149
head 12.7641 -0.820166 1.10891
rclavicle -3.02153e-014 -5.52621e-014
rhumerus -23.3168 1.19539 -84.4441
rradius 37.0785
rwrist 16.0732
rhand -23.4219 -11.2057
rfingers 7.12502
rthumb 3.0357 -41.1638
lclavicle -3.02153e-014 -5.52621e-014
lhumerus -37.3151 -0.0761497 83.5618
lradius 34.5294
lwrist 4.98076
lhand -20.3119 3.30171
lfingers 7.12502
lthumb 6.03872 33.1956
rfemur -7.71848 2.46053 28.3204
rtibia 20.0798
rfoot -12.6232 -5.40904
rtoes -17.4483
lfemur -44.5925 0.314986 -16.7452
ltibia 17.7352
lfoot -10.0805 6.56292
ltoes -18.1121
1669
root 8.13892 16.7179 -3.26123 4557.9 -95.2405 -4541.31
lowerback 0.942888 2.57587 4.10895
upperback 2.1642 3.40098 -0.0149284
thorax 1.93835 1.75966 -2.27989
lowerneck -17.0444 -0.665956 -2.7688
upperneck 29.6615 -1.36584 2.246
head 12.7395 -0.798504 1.08383
rclavicle -3.81667e-014 2.8625e-014
rhumerus -23.1024 1.55036 -84.5231
rradius 37.5759
rwrist 16.0161
rhand -23.1833 -10.8579
rfingers 7.12502
rthumb 3.26612 -40.8127
lclavicle -3.81667e-014 2.8625e-014
lhumerus -37.3591 0.096233 83.448
lradius 33.8346
lwrist 5.0285
lhand -20.5389 3.46683
lfingers 7.12502
lthumb 5.81956 33.3669
rfemur -6.31598 2.42369 28.3164
rtibia 19.3024
rfoot -12.4309 -5.30941
rtoes -18.2293
lfemur -44.1666 -0.586369 -16.1468
ltibia 15.5035
lfoot -10.7915 7.59232
ltoes -17.7985
1670
root 8.13277 16.6825 -3.244 4559.42 -94.9947 -4542.87
lowerback 0.910888 2.63182 3.77889
upperback 2.21222 3.47483 -0.0757581
thorax 1.99403 1.79314 -2.15441
lowerneck -17.0011 -0.61521 -2.75328
upperneck 29.5795 -1.3182 2.32121
head 12.6955 -0.765078 1.11712
rclavicle -4.77083e-015 -2.18663e-014
rhumerus -22.8925 1.935 -84.5853
rradius 37.9347
rwrist 16.2665
rhand -22.9127 -10.4993
rfingers 7.12502
rthumb 3.52742 -40.4499
lclavicle -4.77083e-015 -2.18663e-014
lhumerus -37.3949 0.309068 83.3081
lradius 33.0634
lwrist 4.79935
lhand -20.677 3.62748
lfingers 7.12502
lthumb 5.68617 33.5312
rfemur -5.14275 2.47278 28.1836
rtibia 18.8947
rfoot -12.3785 -5.08247
rtoes -18.5861
lfemur -43.7801 -0.997098 -16.0201
ltibia 13.7452
lfoot -11.1136 8.11639
ltoes -17.3476
1671
root 8.12535 16.6411 -3.23103 4560.53 -94.7511 -4543.88
lowerback 0.724591 2.66214 3.33203
upperback 2.23347 3.51144 -0.14319
thorax 2.09871 1.8065 -1.96428
lowerneck -17.0879 -0.565573 -2.68494
upperneck 29.618 -1.2747 2.34617
head 12.7277 -0.734749 1.122
rclavicle 2.54444e-014 7.15625e-015
rhumerus -22.6086 2.20222 -84.6783
rradius 38.2097
rwrist 16.3042
rhand -22.7984 -10.3224
rfingers 7.12502
rthumb 3.63778 -40.2711
lclavicle 2.54444e-014 7.15625e-015
lhumerus -37.3077 0.540887 83.1429
lradius 32.1705
lwrist 4.64378
lhand -20.9399 3.62535
lfingers 7.12502
lthumb 5.43238 33.5357
rfemur -4.29591 2.4411 28.0211
rtibia 18.7861
rfoot -12.2105 -4.85934
rtoes -19.5472
lfemur -43.6575 -0.665307 -16.5415
ltibia 12.5996
lfoot -10.7397 7.98956
ltoes -17.7092
1672
root 8.10824 16.5943 -3.2146 4563.51 -94.5283 -4546.81
lowerback 0.534627 2.74719 3.03624
upperback 2.2235 3.62313 -0.235296
thorax 2.18853 1.8595 -1.88239
lowerneck -16.9903 -0.530439 -2.58311
upperneck 29.6195 -1.29781 2.45395
head 12.7084 -0.721388 1.14193
rclavicle 9.22361e-014 -2.22639e-014
rhumerus -22.4501 2.32882 -84.8097
rradius 38.409
rwrist 16.4817
rhand -22.6797 -10.1197
rfingers 7.12502
rthumb 3.75243 -40.0665
lclavicle 9.22361e-014 -2.22639e-014
lhumerus -37.3176 0.540975 82.9756
lradius 31.3595
lwrist 4.41846
lhand -21.0433 4.02003
lfingers 7.12502
lthumb 5.33255 33.9329
rfemur -3.48015 2.45872 27.9066
rtibia 18.9294
rfoot -12.0815 -4.46772
rtoes -20.6901
lfemur -43.6331 0.0919159 -17.2568
ltibia 12.3079
lfoot -10.1296 7.29697
ltoes -18.3343
1673
root 8.08332 16.5482 -3.19381 4567.49 -94.3271 -4550.83
lowerback 0.397775 2.81801 2.78639
upperback 2.23224 3.71699 -0.302534
thorax 2.26757 1.90372 -1.80274
lowerneck -16.9649 -0.486008 -2.49014
upperneck 29.6963 -1.28876 2.50587
head 12.7338 -0.702822 1.14745
rclavicle -3.18055e-014 9.54166e-015
rhumerus -22.3099 2.48756 -84.937
rradius 38.5857
rwrist 16.7044
rhand -22.7121 -10.0505
rfingers 7.12502
rthumb 3.72112 -39.9977
lclavicle -3.18055e-014 9.54166e-015
lhumerus -37.3057 0.792811 82.7447
lradius 30.4916
lwrist 4.08075
lhand -21.1556 4.21702
lfingers 7.12502
lthumb 5.22414 34.1326
rfemur -2.58613 2.42005 27.7684
rtibia 19.1468
rfoot -11.8708 -3.86535
rtoes -21.6096
lfemur -43.8464 0.865991 -17.9389
ltibia 13.1658
lfoot -9.27267 5.94901
ltoes -17.3194
1674
root 8.0563 16.5106 -3.1768 4572.72 -94.1803 -4556.03
lowerback 0.166361 2.90955 2.55576
upperback 2.18975 3.8385 -0.378611
thorax 2.34972 1.96192 -1.73825
lowerneck -16.8922 -0.437828 -2.39999
upperneck 29.8002 -1.30918 2.65133
head 12.7621 -0.686684 1.18489
rclavicle -2.38542e-014 1.74931e-014
rhumerus -22.1887 2.47544 -85.0919
rradius 38.6103
rwrist 17.2118
rhand -22.7604 -9.98192
rfingers 7.12502
rthumb 3.67446 -39.93
lclavicle -2.38542e-014 1.74931e-014
lhumerus -37.3232 0.886739 82.5185
lradius 29.6688
lwrist 3.79253
lhand -21.1736 4.40085
lfingers 7.12502
lthumb 5.20677 34.3169
rfemur -1.88074 2.53818 27.6775
rtibia 19.4497
rfoot -11.404 -3.30575
rtoes -22.8643
lfemur -44.3979 1.35916 -18.2195
ltibia 15.0658
lfoot -7.71354 4.7318
ltoes -15.7231
1675
root 8.02819 16.4853 -3.16616 4577.39 -94.0505 -4560.67
lowerback 0.0376718 2.97323 2.19095
upperback 2.12357 3.92819 -0.452238
thorax 2.3381 2.00034 -1.60377
lowerneck -16.8046 -0.386649 -2.20975
upperneck 29.9098 -1.3286 2.70481
head 12.7884 -0.671367 1.16972
rclavicle -1.43125e-014 7.95139e-015
rhumerus -22.108 2.36473 -85.2844
rradius 38.6668
rwrist 17.6271
rhand -22.7801 -9.8822
rfingers 7.12502
rthumb 3.65541 -39.8306
lclavicle -1.43125e-014 7.95139e-015
lhumerus -37.3533 1.1512 82.1962
lradius 28.8885
lwrist 3.19031
lhand -21.145 4.59047
lfingers 7.12502
lthumb 5.23436 34.5058
rfemur -1.37065 2.89191 27.5912
rtibia 20.0461
rfoot -10.817 -2.90338
rtoes -23.8093
lfemur -44.973 1.5158 -18.1874
ltibia 17.5554
lfoot -3.7348 4.7631
ltoes -13.4586
1676
root 8.00339 16.464 -3.14916 4579.75 -93.7818 -4563.12
lowerback 0.163566 2.95335 1.6506
upperback 2.06508 3.91267 -0.54997
thorax 2.17601 1.98199 -1.41349
lowerneck -16.7652 -0.310815 -2.07774
upperneck 30.0579 -1.30531 2.7886
head 12.8401 -0.639941 1.18339
rclavicle 3.18055e-014 -1.98785e-014
rhumerus -22.1052 2.29309 -85.4534
rradius 38.7663
rwrist 18.2186
rhand -22.8502 -9.89081
rfingers 7.12502
rthumb 3.58772 -39.8404
lclavicle 3.18055e-014 -1.98785e-014
lhumerus -37.4147 1.51192 81.9204
lradius 28.1679
lwrist 2.53164
lhand -21.1217 5.02581
lfingers 7.12502
lthumb 5.25684 34.9406
rfemur -1.10809 2.96667 27.2374
rtibia 21.3477
rfoot -10.248 -2.38655
rtoes -24.8496
lfemur -45.3089 1.73566 -18.5571
ltibia 20.0423
lfoot -0.904557 4.93643
ltoes -12.9731
1677
root 7.98613 16.4524 -3.1236 4576.96 -93.2281 -4560.41
lowerback 0.346119 2.84357 0.862357
upperback 2.02653 3.77824 -0.761139
thorax 1.99097 1.90161 -1.20599
lowerneck -16.86 -0.263664 -1.9789
upperneck 30.3247 -1.32256 2.887
head 12.9715 -0.627836 1.20347
rclavicle -3.97569e-014 1.43125e-014
rhumerus -22.0167 2.00237 -85.6382
rradius 38.7846
rwrist 18.7561
rhand -22.9807 -10.0513
rfingers 7.12502
rthumb 3.46173 -40.0029
lclavicle -3.97569e-014 1.43125e-014
lhumerus -37.3446 1.87548 81.6445
lradius 27.3961
lwrist 1.98823
lhand -21.2572 5.19638
lfingers 7.12502
lthumb 5.12599 35.1144
rfemur -1.27659 2.66381 26.3926
rtibia 23.3678
rfoot -9.66749 -1.47076
rtoes -25.8107
lfemur -45.8511 2.08589 -19.6288
ltibia 22.552
lfoot -0.711579 3.95854
ltoes -9.3352
